<?xml version="1.0" encoding="UTF-8" standalone="no"?>
<!DOCTYPE svg PUBLIC "-//W3C//DTD SVG 20010904//EN"
              "http://www.w3.org/TR/2001/REC-SVG-20010904/DTD/svg10.dtd">

<svg xmlns="http://www.w3.org/2000/svg"
     width="105.82mm" height="105.82mm"
     viewBox="0 0 300 300">
  <path id="Selection"
        fill="white" stroke="black" stroke-width="0"
        d="M 266.00,213.00
           C 263.63,222.93 249.78,236.86 242.12,243.62
             221.00,262.28 197.68,271.49 170.00,274.17
             170.00,274.17 161.75,274.38 161.75,274.38
             153.65,274.38 139.61,273.05 131.50,271.12
             121.02,268.63 103.84,261.54 94.75,255.75
             39.72,220.72 21.69,147.31 53.72,91.00
             61.15,77.93 70.26,66.30 82.00,56.80
             99.09,42.99 125.08,30.61 147.38,30.12
             139.78,47.76 133.77,56.31 131.62,76.44
             131.62,76.44 131.25,80.00 131.25,80.00
             130.86,83.87 130.85,91.71 131.09,96.00
             134.39,154.29 176.13,202.52 234.00,212.08
             244.32,213.78 255.67,214.85 266.00,213.00 Z" />
</svg>
