<?xml version="1.0" encoding="UTF-8" standalone="no"?>
<!DOCTYPE svg PUBLIC "-//W3C//DTD SVG 20010904//EN"
              "http://www.w3.org/TR/2001/REC-SVG-20010904/DTD/svg10.dtd">

<svg xmlns="http://www.w3.org/2000/svg"
     width="141.093mm" height="141.093mm"
     viewBox="0 0 400 400">
  <path id="Selection"
        fill="black" stroke="black" stroke-width="0"
        d="M 184.00,35.00
           C 186.33,31.33 188.15,27.02 191.66,24.30
             194.08,22.42 196.06,22.22 199.00,22.03
             208.14,21.41 209.54,22.93 216.00,29.00
             216.00,29.00 216.00,66.00 216.00,66.00
             215.94,77.83 212.64,74.34 211.00,81.00
             211.00,81.00 208.00,80.00 208.00,80.00
             208.00,80.00 198.00,84.00 198.00,84.00
             194.26,80.09 193.76,81.20 189.00,80.00
             189.00,80.00 191.00,78.00 191.00,78.00
             184.49,76.12 185.94,68.21 186.00,63.00
             186.07,55.43 187.35,41.36 184.00,35.00 Z
           M 213.00,26.00
           C 213.00,26.00 212.00,26.00 212.00,26.00
             212.00,26.00 213.00,27.00 213.00,27.00
             213.00,27.00 213.00,26.00 213.00,26.00 Z
           M 92.00,117.00
           C 92.00,117.00 82.03,105.36 82.03,105.36
             77.92,101.21 71.46,96.61 69.36,90.96
             66.71,83.82 69.83,73.69 77.30,70.87
             81.07,69.45 85.92,69.58 90.00,69.00
             92.57,72.07 93.87,73.71 98.00,74.00
             98.00,74.00 99.00,75.00 99.00,75.00
             100.08,78.78 103.28,81.07 106.00,83.80
             113.10,90.95 124.43,100.93 119.64,112.00
             118.35,114.96 116.66,117.22 113.96,119.01
             111.81,120.43 107.60,122.22 105.00,122.17
             98.40,122.05 95.66,117.68 92.00,117.00 Z
           M 280.83,117.00
           C 280.73,112.04 279.12,106.65 280.83,101.72
             281.71,98.41 284.50,95.26 286.72,92.63
             286.72,92.63 294.80,84.60 294.80,84.60
             300.45,79.03 306.80,71.09 315.00,69.77
             320.26,68.92 324.26,71.31 329.00,73.00
             329.00,73.00 331.81,82.00 331.81,82.00
             331.81,82.00 331.00,96.00 331.00,96.00
             331.00,96.00 327.76,95.00 327.76,95.00
             327.89,95.81 328.25,95.92 327.76,97.29
             325.77,100.54 313.45,111.36 310.00,113.00
             310.00,113.00 312.00,115.00 312.00,115.00
             312.00,115.00 307.00,119.00 307.00,119.00
             307.00,119.00 304.00,121.00 304.00,121.00
             304.00,121.00 293.00,121.66 293.00,121.66
             293.00,121.66 280.83,117.00 280.83,117.00 Z
           M 282.00,113.00
           C 282.00,113.00 281.00,113.00 281.00,113.00
             281.00,113.00 282.00,114.00 282.00,114.00
             282.00,114.00 282.00,113.00 282.00,113.00 Z
           M 198.00,125.00
           C 206.77,127.28 203.92,127.20 213.00,126.00
             213.00,126.00 212.00,128.00 212.00,128.00
             221.40,127.52 230.05,131.80 238.00,136.31
             241.62,138.36 244.81,141.64 249.00,142.00
             255.34,152.97 265.44,157.63 269.00,172.00
             269.00,172.00 272.00,171.00 272.00,171.00
             270.99,175.86 271.86,181.08 275.22,185.00
             275.22,185.00 275.22,206.00 275.22,206.00
             275.22,206.00 274.54,215.00 274.54,215.00
             274.18,218.47 272.71,225.76 270.00,228.00
             270.00,228.00 271.00,231.00 271.00,231.00
             268.05,233.95 266.12,236.74 266.00,241.00
             263.20,243.34 263.06,243.34 263.00,247.00
             263.00,247.00 253.91,254.85 253.91,254.85
             253.91,254.85 240.00,267.00 240.00,267.00
             240.00,267.00 238.00,266.00 238.00,266.00
             238.00,266.00 238.00,268.00 238.00,268.00
             238.00,268.00 232.00,271.00 232.00,271.00
             232.00,271.00 230.00,270.00 230.00,270.00
             230.00,270.00 228.00,273.00 228.00,273.00
             228.00,273.00 227.00,271.00 227.00,271.00
             227.00,271.00 223.00,273.00 223.00,273.00
             223.00,273.00 223.00,276.00 223.00,276.00
             223.00,276.00 221.00,273.00 221.00,273.00
             221.00,273.00 219.00,276.00 219.00,276.00
             219.00,276.00 218.00,274.00 218.00,274.00
             215.91,275.95 207.73,276.70 204.72,276.52
             204.72,276.52 187.04,275.43 187.04,275.43
             182.54,274.77 178.52,272.86 174.00,273.00
             171.12,270.44 168.91,269.10 165.00,269.00
             165.00,269.00 165.00,267.00 165.00,267.00
             165.00,267.00 162.00,266.00 162.00,266.00
             162.00,266.00 161.00,269.00 161.00,269.00
             161.00,269.00 161.00,265.00 161.00,265.00
             161.00,265.00 152.96,260.10 152.96,260.10
             152.96,260.10 135.00,241.00 135.00,241.00
             135.00,241.00 132.00,235.00 132.00,235.00
             132.00,235.00 126.15,212.83 126.15,212.83
             126.15,212.83 125.55,194.00 125.55,194.00
             125.55,194.00 128.00,176.00 128.00,176.00
             128.00,176.00 131.00,169.00 131.00,169.00
             131.00,169.00 147.33,147.42 147.33,147.42
             147.33,147.42 162.72,136.00 162.72,136.00
             162.72,136.00 176.00,129.00 176.00,129.00
             182.72,129.37 185.80,127.56 192.00,127.09
             194.67,126.88 196.91,127.73 198.00,125.00 Z
           M 33.00,185.00
           C 38.85,188.26 51.07,187.07 58.00,187.00
             61.34,186.96 64.38,187.25 67.00,185.00
             67.00,185.00 69.00,187.00 69.00,187.00
             69.00,187.00 71.00,185.00 71.00,185.00
             71.00,185.00 72.00,188.00 72.00,188.00
             72.00,188.00 74.00,187.00 74.00,187.00
             74.00,187.00 79.84,192.00 79.84,192.00
             79.87,197.53 82.62,203.35 79.84,209.00
             76.51,215.09 71.43,216.91 65.00,217.00
             65.00,217.00 27.00,217.00 27.00,217.00
             25.90,212.98 22.82,212.10 21.48,208.33
             20.65,205.98 20.68,203.45 20.91,201.00
             21.78,191.86 26.25,189.99 33.00,185.00 Z
           M 329.00,185.00
           C 331.39,185.94 331.89,186.74 334.00,185.00
             340.06,188.38 343.24,186.08 350.00,186.00
             350.00,186.00 370.00,186.00 370.00,186.00
             370.00,186.00 375.62,190.55 375.62,190.55
             379.56,194.42 380.97,201.72 379.69,207.00
             378.94,210.08 376.79,211.80 376.00,215.00
             364.50,218.47 347.31,217.16 335.00,217.00
             328.73,216.91 324.25,214.99 321.31,209.00
             316.89,199.96 323.01,193.04 324.00,189.00
             324.00,189.00 330.00,188.00 330.00,188.00
             330.00,188.00 329.00,185.00 329.00,185.00 Z
           M 99.00,281.00
           C 99.00,281.00 113.62,282.47 113.62,282.47
             113.62,282.47 120.00,288.00 120.00,288.00
             120.00,288.00 121.17,298.00 121.17,298.00
             121.17,298.00 118.00,308.00 118.00,308.00
             118.00,308.00 102.00,321.00 102.00,321.00
             102.00,321.00 104.00,323.00 104.00,323.00
             104.00,323.00 91.00,331.99 91.00,331.99
             91.00,331.99 77.00,333.00 77.00,333.00
             72.25,327.88 67.31,321.60 68.54,314.00
             69.14,310.29 72.47,307.37 75.00,304.80
             80.04,299.68 87.08,291.41 93.00,288.00
             93.00,288.00 92.00,286.00 92.00,286.00
             92.00,286.00 93.00,285.00 93.00,285.00
             93.00,285.00 99.00,281.00 99.00,281.00 Z
           M 285.00,310.00
           C 280.99,302.37 276.94,294.90 283.39,287.04
             285.45,284.53 287.89,282.77 291.00,281.90
             296.34,280.13 299.84,282.12 305.00,281.90
             305.00,281.90 309.00,286.00 309.00,286.00
             310.85,292.49 318.03,294.93 322.28,299.46
             325.34,302.71 327.35,307.93 331.97,309.00
             331.97,309.00 331.97,319.99 331.97,319.99
             331.97,319.99 331.00,328.00 331.00,328.00
             331.00,328.00 323.00,332.03 323.00,332.03
             314.68,335.05 307.97,331.76 303.00,325.00
             303.00,325.00 300.00,327.00 300.00,327.00
             299.07,323.06 298.59,322.80 295.00,321.00
             294.19,316.45 289.45,311.17 285.00,310.00 Z
           M 322.00,299.00
           C 322.00,299.00 321.00,299.00 321.00,299.00
             321.00,299.00 322.00,300.00 322.00,300.00
             322.00,300.00 322.00,299.00 322.00,299.00 Z
           M 70.00,312.00
           C 70.00,312.00 69.00,312.00 69.00,312.00
             69.00,312.00 70.00,313.00 70.00,313.00
             70.00,313.00 70.00,312.00 70.00,312.00 Z
           M 190.00,321.00
           C 190.00,321.00 192.00,321.00 192.00,321.00
             192.00,321.00 193.00,323.00 193.00,323.00
             200.43,318.19 207.08,322.13 214.00,325.00
             214.00,325.00 216.00,337.00 216.00,337.00
             216.00,337.00 216.00,375.00 216.00,375.00
             216.00,375.00 215.00,376.00 215.00,376.00
             215.00,376.00 213.00,375.00 213.00,375.00
             207.70,383.32 201.34,380.46 193.00,381.00
             193.00,381.00 185.96,374.00 185.96,374.00
             185.96,374.00 185.96,339.00 185.96,339.00
             185.96,339.00 185.96,333.00 185.96,333.00
             185.96,333.00 190.00,321.00 190.00,321.00 Z" />
</svg>
